<svg xmlns="http://www.w3.org/2000/svg" width="34.227" height="24.846" viewBox="0 0 34.227 24.846">
  <g id="グループ_12" data-name="グループ 12" transform="translate(-22.887 -15.155)">
    <ellipse id="楕円形_1" data-name="楕円形 1" cx="3.633" cy="4.275" rx="3.633" ry="4.275" transform="translate(22.887 25.271) rotate(-14.589)" fill="#fff"/>
    <ellipse id="楕円形_2" data-name="楕円形 2" cx="4.275" cy="3.633" rx="4.275" ry="3.633" transform="translate(47.275 29.986) rotate(-69.1)" fill="#fff"/>
    <ellipse id="楕円形_3" data-name="楕円形 3" cx="3.787" cy="4.885" rx="3.787" ry="4.885" transform="translate(29.719 16.163) rotate(-7.651)" fill="#fff"/>
    <ellipse id="楕円形_4" data-name="楕円形 4" cx="4.885" cy="3.787" rx="4.885" ry="3.787" transform="matrix(0.096, -0.995, 0.995, 0.096, 40.026, 24.998)" fill="#fff"/>
    <path id="パス_30" data-name="パス 30" d="M18.493,15.71c3.1-.278,3.964,1.982,6.062,4.119,1.275,1.3,5.478,2.332,3.731,6.062-1.642,3.5-5.363,1.088-9.055,1.049-4.507-.048-6.528,2.487-9.171-.932-1.471-1.9-.427-5.324,2.332-6.335S15.035,16.022,18.493,15.71Z" transform="translate(20.936 12.199)" fill="#fff"/>
  </g>
</svg>
